<?xml version="1.0" encoding="UTF-8" standalone="no"?>
<svg
   width="64pt"
   height="64pt"
   viewBox="0 0 22.577778 22.577778"
   version="1.1"
   id="svg831"
   inkscape:version="1.1.2 (1:1.1+202202050950+0a00cf5339)"
   sodipodi:docname="3 - Wishlist.svg"
   inkscape:export-filename="/media/taufikramadhan/Data/Tr Design Studio/Project Design/TR Creative Design/Icon Design/Project Hiring/Icon Icons/019 - Commerce And Shopping/5 - Send/3 - Wishlish.png"
   inkscape:export-xdpi="576"
   inkscape:export-ydpi="576"
   xmlns:inkscape="http://www.inkscape.org/namespaces/inkscape"
   xmlns:sodipodi="http://sodipodi.sourceforge.net/DTD/sodipodi-0.dtd"
   xmlns="http://www.w3.org/2000/svg"
   xmlns:svg="http://www.w3.org/2000/svg"
   xmlns:rdf="http://www.w3.org/1999/02/22-rdf-syntax-ns#"
   xmlns:cc="http://creativecommons.org/ns#"
   xmlns:dc="http://purl.org/dc/elements/1.1/">
  <defs
     id="defs825">
    <pattern
       id="EMFhbasepattern"
       patternUnits="userSpaceOnUse"
       width="6"
       height="6"
       x="0"
       y="0" />
    <pattern
       id="EMFhbasepattern-9"
       patternUnits="userSpaceOnUse"
       width="6"
       height="6"
       x="0"
       y="0" />
    <pattern
       id="EMFhbasepattern-0"
       patternUnits="userSpaceOnUse"
       width="6"
       height="6"
       x="0"
       y="0" />
    <pattern
       id="EMFhbasepattern-7"
       patternUnits="userSpaceOnUse"
       width="6"
       height="6"
       x="0"
       y="0" />
    <pattern
       id="EMFhbasepattern-2"
       patternUnits="userSpaceOnUse"
       width="6"
       height="6"
       x="0"
       y="0" />
    <pattern
       id="EMFhbasepattern-98"
       patternUnits="userSpaceOnUse"
       width="6"
       height="6"
       x="0"
       y="0" />
    <pattern
       id="EMFhbasepattern-6"
       patternUnits="userSpaceOnUse"
       width="6"
       height="6"
       x="0"
       y="0" />
    <pattern
       id="EMFhbasepattern-01"
       patternUnits="userSpaceOnUse"
       width="6"
       height="6"
       x="0"
       y="0" />
    <pattern
       id="EMFhbasepattern-07"
       patternUnits="userSpaceOnUse"
       width="6"
       height="6"
       x="0"
       y="0" />
    <pattern
       id="EMFhbasepattern-8"
       patternUnits="userSpaceOnUse"
       width="6"
       height="6"
       x="0"
       y="0" />
    <pattern
       id="EMFhbasepattern-4"
       patternUnits="userSpaceOnUse"
       width="6"
       height="6"
       x="0"
       y="0" />
    <pattern
       id="EMFhbasepattern-40"
       patternUnits="userSpaceOnUse"
       width="6"
       height="6"
       x="0"
       y="0" />
    <pattern
       id="EMFhbasepattern-08"
       patternUnits="userSpaceOnUse"
       width="6"
       height="6"
       x="0"
       y="0" />
    <pattern
       id="EMFhbasepattern-04"
       patternUnits="userSpaceOnUse"
       width="6"
       height="6"
       x="0"
       y="0" />
    <pattern
       id="EMFhbasepattern-014"
       patternUnits="userSpaceOnUse"
       width="6"
       height="6"
       x="0"
       y="0" />
    <pattern
       id="EMFhbasepattern-27"
       patternUnits="userSpaceOnUse"
       width="6"
       height="6"
       x="0"
       y="0" />
    <pattern
       id="EMFhbasepattern-09"
       patternUnits="userSpaceOnUse"
       width="6"
       height="6"
       x="0"
       y="0" />
    <pattern
       id="EMFhbasepattern-5"
       patternUnits="userSpaceOnUse"
       width="6"
       height="6"
       x="0"
       y="0" />
    <pattern
       id="EMFhbasepattern-018"
       patternUnits="userSpaceOnUse"
       width="6"
       height="6"
       x="0"
       y="0" />
  </defs>
  <sodipodi:namedview
     id="base"
     pagecolor="#ffffff"
     bordercolor="#666666"
     borderopacity="1.0"
     inkscape:pageopacity="0.0"
     inkscape:pageshadow="2"
     inkscape:zoom="5.5546875"
     inkscape:cx="42.576653"
     inkscape:cy="42.666667"
     inkscape:document-units="pt"
     inkscape:current-layer="layer1"
     showgrid="false"
     units="pt"
     inkscape:window-width="1366"
     inkscape:window-height="705"
     inkscape:window-x="0"
     inkscape:window-y="31"
     inkscape:window-maximized="1"
     inkscape:pagecheckerboard="true"
     inkscape:showpageshadow="false"
     inkscape:object-paths="true"
     inkscape:snap-intersection-paths="true"
     inkscape:snap-smooth-nodes="true"
     inkscape:snap-midpoints="true"
     showguides="false"
     inkscape:snap-bbox="true"
     inkscape:bbox-nodes="true"
     inkscape:snap-nodes="false"
     inkscape:snap-global="true"
     inkscape:document-rotation="0">
    <inkscape:grid
       type="xygrid"
       id="grid1378" />
    <sodipodi:guide
       position="0.97013831,21.607643"
       orientation="78.000048,0"
       id="guide1380"
       inkscape:locked="false" />
    <sodipodi:guide
       position="0.97013831,0.97013129"
       orientation="0,78.000005"
       id="guide1382"
       inkscape:locked="false" />
    <sodipodi:guide
       position="21.607639,0.97013129"
       orientation="-78.000048,0"
       id="guide1384"
       inkscape:locked="false" />
    <sodipodi:guide
       position="21.607639,21.607643"
       orientation="0,-78.000005"
       id="guide1386"
       inkscape:locked="false" />
  </sodipodi:namedview>
  <metadata
     id="metadata828">
    <rdf:RDF>
      <cc:Work
         rdf:about="">
        <dc:format>image/svg+xml</dc:format>
        <dc:type
           rdf:resource="http://purl.org/dc/dcmitype/StillImage" />
      </cc:Work>
    </rdf:RDF>
  </metadata>
  <g
     inkscape:label="Icon"
     inkscape:groupmode="layer"
     id="layer1"
     transform="translate(0,-274.42223)">
    <path
       id="path98620"
       style="color:#3b5d50;clip-rule:evenodd;display:inline;fill:#3b5d50;fill-rule:evenodd;stroke-width:1;stroke-linecap:round;stroke-linejoin:round;stroke-miterlimit:1.5;-inkscape-stroke:none"
       d="m 12.313725,275.39239 c -0.442969,0 -0.884093,0.34044 -0.884093,0.68793 h -0.837739 v 1.37653 h 3.440303 v -1.37653 h -0.837738 c 0,-0.36069 -0.437765,-0.68793 -0.880733,-0.68793 z m 3.782922,1.37588 v 1.37652 h 1.376524 c 0.189033,7e-4 0.34195,0.15359 0.34262,0.34262 v 12.72867 c -0.04856,0.60821 -0.436807,1.03121 -1.030546,1.03121 h -3.095668 v 2.06378 h 3.709697 c 0.993645,0 1.792369,-0.83973 1.792369,-1.85083 v -13.8405 c 0,-1.01084 -0.798628,-1.85148 -1.792369,-1.85148 z m -8.8691433,0 c -0.9937405,0 -1.7950576,0.84064 -1.7950576,1.85148 v 8.46742 h 1.3765244 v -8.59976 c 6.878e-4,-0.19002 0.1552831,-0.34334 0.3453066,-0.34262 h 1.3758524 v -1.37652 z m 1.9912239,0 v 1.71914 c 0,0.19405 0.1485791,0.34531 0.3426201,0.34531 h 5.5047543 c 0.194041,0 0.342619,-0.15126 0.342619,-0.34531 v -1.71914 h -0.687925 v 1.03122 c 7.21e-4,0.18994 -0.152663,0.34453 -0.342621,0.3453 h -4.128902 c -0.189957,-6.8e-4 -0.3433412,-0.15536 -0.3426197,-0.3453 v -1.03122 z m -1.7218309,2.06445 v 8.25445 h 7.2238993 c 0.597325,0.0117 1.017277,0.30531 1.359056,0.74838 0.266332,0.40232 0.339916,0.85848 0.359415,1.31675 -0.0025,0.79947 -1.2e-5,1.25945 0,2.05907 0,0.1792 0.122592,0.34664 0.344635,0.34664 0.222042,0 0.343963,-0.17789 0.343963,-0.34193 v -12.38336 h -1.095039 c -0.143404,0.39807 -0.522198,0.68793 -0.966724,0.68793 H 9.5613477 c -0.4445261,0 -0.8238162,-0.28986 -0.9673967,-0.68793 z m 3.2602603,1.37653 h 0.553566 c 0.143483,-1.8e-4 0.272009,0.0887 0.322466,0.22303 l 0.04367,0.1196 h 2.193437 c 0.225363,1.3e-4 0.389733,0.21331 0.332543,0.4313 l -0.360759,1.37652 c -0.03969,0.15115 -0.17627,0.25656 -0.332542,0.25663 h -1.6654 c -0.152687,2.7e-4 -0.28728,-0.1001 -0.330528,-0.24655 -0.144677,-0.49161 -0.281997,-0.98612 -0.441375,-1.47259 H 10.75716 c -0.189968,-7.6e-4 -0.343365,-0.15534 -0.34262,-0.34531 7.23e-4,-0.18892 0.153702,-0.34188 0.34262,-0.34262 z m 1.142737,1.03053 0.202885,0.68794 h 1.140049 l 0.180044,-0.68794 z m 0.233115,1.57673 c 0.189181,3.8e-4 0.342553,0.15345 0.343292,0.34262 v 0.14511 c -7.23e-4,0.18918 -0.154111,0.34225 -0.343292,0.34262 -0.189966,7.5e-4 -0.344566,-0.15265 -0.345305,-0.34262 v -0.14511 c 7.56e-4,-0.18997 0.155339,-0.34336 0.345305,-0.34262 z m 1.031219,0 c 0.189966,-7.5e-4 0.344566,0.15265 0.345307,0.34262 v 0.14511 c -7.57e-4,0.18997 -0.155341,0.34336 -0.345307,0.34262 -0.188918,-7.5e-4 -0.341883,-0.1537 -0.342621,-0.34262 v -0.14511 c 7.24e-4,-0.18892 0.153703,-0.34187 0.342621,-0.34262 z m -4.6340985,1.44975 h 1.3765238 c 0.1899507,7.6e-4 0.3433327,0.15537 0.3426197,0.34532 v 1.37652 c -7.57e-4,0.18891 -0.153709,0.34187 -0.3426197,0.34262 H 8.5301295 c -0.1899583,7.2e-4 -0.3445471,-0.15266 -0.3453066,-0.34262 v -1.37652 c -7.223e-4,-0.191 0.1543019,-0.34604 0.3453066,-0.34532 z m 2.7496905,0.0685 h 3.440976 c 0.191018,-7.5e-4 0.346057,0.1543 0.345306,0.34531 -3.8e-4,0.19022 -0.155086,0.34403 -0.345306,0.34328 H 11.27982 c -0.189182,-7.6e-4 -0.342255,-0.1541 -0.34262,-0.34328 -7.22e-4,-0.18996 0.152657,-0.34457 0.34262,-0.34531 z m -2.4070708,0.62007 v 0.68793 h 0.6885985 v -0.68793 z m 2.4070708,0.75645 h 4.47152 c 0.191009,-7.5e-4 0.346043,0.1543 0.345307,0.34531 -7.57e-4,0.18998 -0.15534,0.34336 -0.345307,0.34263 h -4.47152 c -0.188914,-7.7e-4 -0.341876,-0.15374 -0.34262,-0.34265 -7.22e-4,-0.18996 0.152657,-0.34456 0.34262,-0.3453 z m 3.440976,2.0631 c -0.691747,0 -1.031219,0.73715 -1.031219,1.37517 v 2.40707 c 4e-6,8.6e-4 4e-6,10e-4 0,0.002 h 2.13096 c -0.05333,-0.10437 -0.06921,-0.2322 -0.06921,-0.3406 v -2.06715 c 0,-0.65607 -0.338799,-1.37719 -1.030546,-1.37719 z m -9.5550558,10e-4 c -0.5754974,0 -1.1064596,0.59845 -1.1064596,1.42154 v 4.76847 h 6.1899924 c 0.218463,0 0.337792,0.14184 0.34262,0.3453 v 0.29693 c 0,0.82087 0.526017,1.41831 1.09168,1.42221 h 0.152499 c 0.289593,10e-6 0.576631,-0.13591 0.802805,-0.41115 0.226242,-0.27532 0.362775,-0.66738 0.362775,-1.07959 v -5.38785 c 0,-0.53762 0.141213,-1.01247 0.40308,-1.37586 z m -0.075913,0.68794 h 1.3765243 c 0.1889096,7.5e-4 0.3418643,0.1537 0.3426197,0.34262 v 1.37652 c 7.223e-4,0.18996 -0.1526616,0.34455 -0.3426197,0.3453 h -1.376525 c -0.1899581,-7.5e-4 -0.343344,-0.15534 -0.3426197,-0.3453 v -1.37652 c 7.568e-4,-0.18892 0.15371,-0.34187 0.3426204,-0.34262 z m 2.7523769,0 h 2.0644495 c 0.1889184,7.1e-4 0.3418844,0.1537 0.3426194,0.34262 7.57e-4,0.18996 -0.152653,0.34455 -0.3426194,0.3453 H 7.8422035 c -0.1910167,7.7e-4 -0.3460543,-0.15429 -0.3453068,-0.3453 7.567e-4,-0.18998 0.1553406,-0.34336 0.3453074,-0.34262 z m -2.4097572,0.68792 v 0.68793 h 0.6879262 v -0.68793 z m 2.4097572,0.68793 h 0.6879262 c 0.1891787,7.3e-4 0.3422516,0.15412 0.3426197,0.34329 7.567e-4,0.18996 -0.1526536,0.34456 -0.3426197,0.3453 H 7.8422035 c -0.1910167,7.7e-4 -0.3460543,-0.15429 -0.3453068,-0.3453 3.784e-4,-0.19023 0.1550789,-0.34404 0.3453074,-0.34329 z m 2.0644495,0 h 2.0617634 c 0.190228,-7.6e-4 0.344936,0.15306 0.345308,0.34329 7.56e-4,0.19101 -0.154291,0.34605 -0.345308,0.3453 H 9.9066533 c -0.1910155,7.7e-4 -0.346053,-0.15429 -0.3453056,-0.3453 3.783e-4,-0.19023 0.1550779,-0.34404 0.3453059,-0.34329 z m -4.8168264,1.37652 h 1.3765243 c 0.1889096,7.5e-4 0.3418643,0.15372 0.3426197,0.34262 v 1.37652 c -7.568e-4,0.18892 -0.1537101,0.34187 -0.3426197,0.34263 h -1.376525 c -0.1889097,-7.6e-4 -0.3418643,-0.15371 -0.3426197,-0.34263 v -1.37652 c 7.568e-4,-0.1889 0.15371,-0.34187 0.3426204,-0.34262 z m 2.7523769,0 h 4.1262129 c 0.189967,-7.5e-4 0.344566,0.15266 0.345308,0.34262 7.56e-4,0.19103 -0.154291,0.34606 -0.345308,0.34531 H 7.8422035 c -0.1910167,7.6e-4 -0.3460543,-0.15428 -0.3453068,-0.34531 7.567e-4,-0.18996 0.1553406,-0.34336 0.3453074,-0.34262 z m -2.4097572,0.68793 v 0.68591 h 0.6879262 v -0.68591 z m 2.4097572,0.68591 h 2.0644495 c 0.1899664,7.6e-4 0.3433634,0.15535 0.3426194,0.3453 -7.21e-4,0.18892 -0.153701,0.3419 -0.3426194,0.34263 H 7.8422035 c -0.1899662,7.5e-4 -0.3445662,-0.15265 -0.3453068,-0.34263 -7.567e-4,-0.19101 0.1542901,-0.34604 0.3453074,-0.3453 z m -4.4560694,2.06379 c 0.022895,0.79241 0.5232856,1.37262 1.0762283,1.37652 h 5.907836 c -0.283083,-0.37009 -0.4534988,-0.85627 -0.4628733,-1.37652 z"
       sodipodi:nodetypes="sccccccscccccsccsssccssccccccscsssscccccccccccccsssccssccccccccccccccccccccccccccccccccccccccccccccccccccccccccccccccccsscccsssssscscscccsscscccccccccccccccccccccccccccccccccccccccccccccccccccccccccccccccccccc" />
  </g>
</svg>
