<?xml version="1.0" encoding="UTF-8"?>
<svg id="Layer_1" data-name="Layer 1" xmlns="http://www.w3.org/2000/svg" viewBox="0 0 262.37 152.07">
    <defs>
        <style>
        .cls-1 {
            fill: #3b5d50;
        }

        .cls-2 {
            fill: #3b5d50;
        }
        </style>
    </defs>
    <path class="cls-1"
        d="M486.15,332.76c38.78-1.16,59-45,67.51-82.51-35.21,44.45-118.62,12.51-156,6.49C300.74,241.11,264.24,323.87,312.5,376c-22.66-49.07,6-77.57,53-77.57C410.81,298.44,442.43,334.09,486.15,332.76Z"
        transform="translate(-291.29 -250.25)" />
    <path class="cls-2"
        d="M443,380.86c25.69,5.15,45.7-20.6,57-44C470,360.76,420,327,396.38,317.38c-61.37-25.06-98,23.8-74.21,65.45-7.42-35.72,15.79-50.1,46.72-42.93C398.66,346.8,414,375.07,443,380.86Z"
        transform="translate(-291.29 -250.25)" />
    <path class="cls-1"
        d="M397.17,400.48c13.48,6.4,28.1-5.05,37.57-16.4-19.84,9-42.78-16.52-54.51-25.13-30.44-22.36-57.44-.44-50.08,25.87.86-20.76,15.67-25.49,31.77-17.24C377.41,375.52,382,393.26,397.17,400.48Z"
        transform="translate(-291.29 -250.25)" />
</svg>